<?xml version="1.0" encoding="UTF-8" standalone="no"?>
<!-- Created with Inkscape (http://www.inkscape.org/) -->

<svg
   width="210mm"
   height="210mm"
   viewBox="0 0 210 210"
   version="1.1"
   id="svg5"
   inkscapeversion="1.1.2 (1:1.1+202205011111+08b2f3d93c)"
   sodipodidocname="logo.svg"
   inkscapeexport-filename="/home/kurv/Logo.png"
   inkscapeexport-xdpi="96"
   inkscapeexport-ydpi="96"
   xmlnsinkscape="http://www.inkscape.org/namespaces/inkscape"
   xmlnssodipodi="http://sodipodi.sourceforge.net/DTD/sodipodi-0.dtd"
   xmlns="http://www.w3.org/2000/svg"
   xmlnssvg="http://www.w3.org/2000/svg">
  <sodipodinamedview
     id="namedview7"
     pagecolor="#ffffff"
     bordercolor="#666666"
     borderopacity="1.0"
     inkscapepageshadow="2"
     inkscapepageopacity="0.0"
     inkscapepagecheckerboard="0"
     inkscapedocument-units="mm"
     showgrid="false"
     showguides="false"
     inkscapezoom="0.18974388"
     inkscapecx="550.7424"
     inkscapecy="329.39139"
     inkscapewindow-width="1298"
     inkscapewindow-height="704"
     inkscapewindow-x="68"
     inkscapewindow-y="27"
     inkscapewindow-maximized="1"
     inkscapecurrent-layer="layer1"
     height="210mm" />
  <defs
     id="defs2">
    <clipPath
       clipPathUnits="userSpaceOnUse"
       id="clipPath2088">
      <path
         style="fill:#aa4400;stroke:#000000;stroke-width:0.264583px;stroke-linecap:butt;stroke-linejoin:miter;stroke-opacity:1"
         d="m -10.498291,203.06738 c 0,0 -3.542232,-26.51732 2.5088938,-37.479 9.7590239,-17.67857 29.0456912,-38.78561 48.9915242,-35.63375 22.832404,3.608 20.595408,44.81459 40.771564,56.09551 21.533819,12.04002 51.175529,15.5753 73.792289,5.71884 25.28979,-11.02137 25.35404,-55.96293 51.48947,-64.79375 7.6495,-2.58467 20.20313,3.12488 23.4842,5.93722 3.28107,2.81234 18.88418,89.27124 18.88418,89.27124 H -14.918407 Z"
         id="path2090"
         sodipodinodetypes="cssssssccc" />
    </clipPath>
    <clipPath
       clipPathUnits="userSpaceOnUse"
       id="clipPath15099">
      <path
         style="fill:#000000;fill-opacity:1;stroke:none;stroke-width:0.264583px;stroke-linecap:butt;stroke-linejoin:miter;stroke-opacity:1"
         d="M 145.77292,62.097602 133.51503,36.029334 149.43752,15.57732 165.48637,34.095052 151.38358,61.812575 Z"
         id="path15101" />
    </clipPath>
    <clipPath
       clipPathUnits="userSpaceOnUse"
       id="clipPath21323">
      <path
         style="fill:#6c5353;stroke:none;stroke-width:0.264583px;stroke-linecap:butt;stroke-linejoin:miter;stroke-opacity:1"
         d="m 197.13158,137.15016 c 0,0 0.0578,-18.71958 9.44247,-27.74363 3.4501,-3.31751 9.63315,-15.925709 14.75546,-9.951163 4.48192,5.227603 3.80692,6.650373 6.72749,11.352263 0.55644,0.89584 35.41109,0.44317 35.98185,1.23669 10.16042,14.12623 -15.71553,26.81471 -15.52333,26.39202 z"
         id="path21325"
         sodipodinodetypes="csssscc" />
    </clipPath>
    <clipPath
       clipPathUnits="userSpaceOnUse"
       id="clipPath23459">
      <path
         style="fill:#6c5353;stroke:none;stroke-width:0.264583px;stroke-linecap:butt;stroke-linejoin:miter;stroke-opacity:1"
         d="m 128.32384,134.82652 c 0,0 0.0578,-18.71958 9.44247,-27.74363 3.4501,-3.31751 9.63315,-15.925714 14.75546,-9.951168 4.48192,5.227608 1.88118,14.026358 6.72749,11.352268 42.64613,-23.531224 41.84862,-3.2929 35.98185,1.23669 -13.77326,10.63399 -15.71553,26.81471 -15.52333,26.39202 z"
         id="path23461"
         sodipodinodetypes="csssscc" />
    </clipPath>
    <clipPath
       clipPathUnits="userSpaceOnUse"
       id="clipPath23696">
      <path
         style="fill:#6c5353;stroke:none;stroke-width:0.264583px;stroke-linecap:butt;stroke-linejoin:miter;stroke-opacity:1"
         d="m 133.97038,125.25673 c 0,0 0.0578,-18.71958 9.44247,-27.743632 3.4501,-3.317508 9.63315,-15.925713 14.75546,-9.951167 4.48192,5.227608 1.88118,14.026359 6.72749,11.352268 42.64613,-23.531222 41.84862,-3.292899 35.98185,1.236691 -13.77326,10.63399 -15.71553,26.81471 -15.52333,26.39202 z"
         id="path23698"
         sodipodinodetypes="csssscc" />
    </clipPath>
  </defs>
  <g
     inkscapelabel="Capa 1"
     inkscapegroupmode="layer"
     id="layer1">
    <circle
       style="fill:#0088aa;fill-opacity:1;stroke:none;stroke-width:1.61334;stroke-opacity:1"
       id="path19374"
       cx="104.84038"
       cy="102.42721"
       r="97.632652" />
    <circle
       style="fill:#6c5353;fill-opacity:1;stroke:none;stroke-width:0.34258;stroke-opacity:1"
       id="circle23597"
       cx="163.8894"
       cy="93.321693"
       r="20.731539"
       clip-path="url(#clipPath23696)"
       transform="matrix(4.7093781,0,0,4.7093781,-667.5256,-335.0178)" />
    <path
       style="fill:#ffffff;stroke:#000000;stroke-width:0.29723px;stroke-linecap:butt;stroke-linejoin:miter;stroke-opacity:1"
       d="m 115.72821,44.623813 6.5506,-18.540323 6.62623,18.513432 17.74193,-8.477992 -8.40549,17.776404 18.5403,6.550604 -18.51341,6.626213 8.47796,17.741969 -17.77639,-8.405532 -6.55061,18.540316 L 115.79305,76.435478 98.051126,84.913465 106.45666,67.13706 87.916355,60.586438 106.42977,53.96023 97.951805,36.21827 Z"
       id="path2416" />
    <path
       style="fill:#e6e6e6;stroke:none;stroke-width:1.24602px;stroke-linecap:butt;stroke-linejoin:miter;stroke-opacity:1"
       d="M 22.801292,101.57273 13.813248,117.3642 36.878636,96.699927 c 0.470843,0.689147 10.93811,41.392363 27.161978,6.430573 8.500856,-18.319007 23.165426,26.97078 23.165426,26.97078 l -4.919651,-25.65621 8.775972,9.42004 C 94.19504,103.3988 67.9044,22.372712 22.801292,101.57273 Z"
       id="path24175"
       sodipodinodetypes="cccscccc" />
  </g>
</svg>
